{"title":"M.S. Dhoni The Untold Story (2016) - DesiSCR Rip  - 1CD Rip - x2","uid":15926576,"size":753278331,"categoryP":"video","categoryS":"movies","magnet":"?xt=urn:btih:48839230f5959a0fad9e56ad031fa6dd3c4e9db1&amp;dn=M.S.+Dhoni+The+Untold+Story+%282016%29+-+DesiSCR+Rip++-+1CD+Rip+-+x2&amp;tr=udp%3A%2F%2Ftracker.leechers-paradise.org%3A6969&amp;tr=udp%3A%2F%2Fzer0day.ch%3A1337&amp;tr=udp%3A%2F%2Fopen.demonii.com%3A1337&amp;tr=udp%3A%2F%2Ftracker.coppersurfer.tk%3A6969&amp;tr=udp%3A%2F%2Fexodus.desync.com%3A6969","seeders":19,"leechers":6,"uploader":"makintos13","files":1,"time":1475312515,"description":"https://imgmak.com/aq3\r\n \nhttps://imgmak.com/aqG\r\n \nhttps://imgmak.com/aqH\r\n \nhttps://imgmak.com/aqv\r\n \nhttps://imgmak.com/aqy\r\n \nhttps://imgmak.com/aq6\r\n \nhttps://imgmak.com/aq9\r\n \nhttps://imgmak.com/aqM\r\n\r\n\r\nFormat                      : Matroska\r\nFormat version              : Version 4 / Version 2\r\nFile size                   : 718 MiB\r\nDuration                    : 3 h 4 min\r\nOverall bit rate            : 545 kb/s\r\n\r\n\r\nVideo\r\nID                          : 1\r\nFormat                      : AVC\r\nFormat/Info                 : Advanced Video Codec\r\nFormat profile              :   \r\nFormat settings, CABAC      : Yes\r\nFormat settings, ReFrames   : 4 frames\r\nCodec ID                    : V_MPEG4/ISO/AVC\r\nDuration                    : 3 h 4 min\r\nBit rate                    : 478 kb/s\r\nWidth                       : 640 pixels\r\nHeight                      : 272 pixels\r\nDisplay aspect ratio        : 2.35:1\r\nFrame rate mode             : Constant\r\nFrame rate                  : 24.975 (25000/1001) FPS\r\nColor space                 : YUV\r\nChroma subsampling          : 4:2:0\r\nBit depth                   : 8 bits\r\nScan type                   : Progressive\r\nBits/(Pixel*Frame)          : 0.110\r\nStream size                 : 631 MiB (88%)\r\n\r\nDefault                     : Yes\r\nForced                      : No\r\n\r\nAudio\r\nID                          : 2\r\nFormat                      : AAC\r\nFormat/Info                 : Advanced Audio Codec\r\nFormat profile              : LC\r\nCodec ID                    : A_AAC\r\nDuration                    : 3 h 4 min\r\nBit rate                    : 64.3 kb/s\r\nChannel(s)                  : 2 channels\r\nChannel positions           : Front: L R\r\nSampling rate               : 48.0 kHz\r\nFrame rate                  : 46.875 FPS (1024 spf)\r\nCompression mode            : Lossy\r\nDelay relative to video     : 59 ms\r\nStream size                 : 84.8 MiB (12%)\r\nTitle                       : Stereo\r\nDefault                     : Yes\r\nForced                      : No\r\n\r\nSource                      : DUS (thanks)","torrent":{"xt":"urn:btih:48839230f5959a0fad9e56ad031fa6dd3c4e9db1","amp;dn":"M.S.+Dhoni+The+Untold+Story+%282016%29+-+DesiSCR+Rip++-+1CD+Rip+-+x2","amp;tr":["udp%3A%2F%2Ftracker.leechers-paradise.org%3A6969","udp%3A%2F%2Fzer0day.ch%3A1337","udp%3A%2F%2Fopen.demonii.com%3A1337","udp%3A%2F%2Ftracker.coppersurfer.tk%3A6969","udp%3A%2F%2Fexodus.desync.com%3A6969"],"infoHash":"48839230f5959a0fad9e56ad031fa6dd3c4e9db1","infoHashBuffer":{"type":"Buffer","data":[72,131,146,48,245,149,154,15,173,158,86,173,3,31,166,221,60,78,157,177]},"announce":[],"urlList":[]}}